<svg width="47" height="31" viewBox="0 0 47 31" fill="none" xmlns="http://www.w3.org/2000/svg">
<path d="M46.7279 0C46.9093 0.307094 47 0.601392 47 0.882894C46.4039 1.03644 45.8727 1.21558 45.4062 1.42031C44.9656 1.59945 44.5639 1.81697 44.2011 2.07288C43.8383 2.3032 43.5013 2.5975 43.1904 2.95578C42.9053 3.28846 42.6202 3.68512 42.3351 4.14576C42.1796 4.37608 41.9982 4.55522 41.7909 4.68318C41.6095 4.81113 41.454 5.00307 41.3244 5.25898C41.143 5.59166 41.0005 5.96273 40.8968 6.37219C40.7931 6.75606 40.6895 7.15272 40.5858 7.56218C40.534 7.69013 40.4821 7.83089 40.4303 7.98443C40.3785 8.11239 40.3266 8.24034 40.2748 8.3683C40.223 8.6498 40.21 8.91851 40.2359 9.17442C40.2618 9.43033 40.223 9.68624 40.1193 9.94215C40.0416 10.1469 39.9379 10.3132 39.8083 10.4412C39.6787 10.5691 39.5751 10.7099 39.4973 10.8634C39.29 11.2217 39.1475 11.6184 39.0697 12.0534C39.0179 12.4885 38.966 12.9491 38.9142 13.4353C38.8883 13.5889 38.8365 13.7296 38.7587 13.8576C38.7069 13.9856 38.6551 14.1263 38.6032 14.2799C38.5514 14.4846 38.5125 14.6893 38.4866 14.894C38.4607 15.0732 38.4218 15.2651 38.37 15.4698C38.1886 15.9817 37.9942 16.5063 37.7869 17.0437C37.6055 17.5555 37.4759 18.0673 37.3981 18.5792C37.3463 18.8607 37.3204 19.1422 37.3204 19.4237C37.3463 19.6796 37.3333 19.9483 37.2815 20.2298C37.1519 20.9719 36.9705 21.6885 36.7373 22.3794C36.504 23.0448 36.2837 23.6974 36.0764 24.3372C35.9468 24.7978 35.8432 25.2329 35.7654 25.6423C35.7136 26.0262 35.6099 26.4356 35.4544 26.8707C35.3508 27.101 35.273 27.3185 35.2212 27.5233C35.1694 27.7024 35.0657 27.8815 34.9102 28.0607C34.7547 28.2398 34.5344 28.3806 34.2493 28.4829C33.9643 28.5853 33.6662 28.6749 33.3552 28.7516C33.0442 28.8284 32.7333 28.8924 32.4223 28.9436C32.1372 29.0203 31.878 29.0971 31.6448 29.1739C31.4115 29.2763 31.2172 29.417 31.0617 29.5961C30.9062 29.8009 30.7377 29.98 30.5563 30.1336C30.3749 30.3127 30.1676 30.4279 29.9343 30.479C29.727 30.5558 29.4419 30.5174 29.0791 30.3639C29.0532 30.0568 29.0402 29.7113 29.0402 29.3274C29.0661 28.9436 29.105 28.5981 29.1569 28.291C29.2346 27.8559 29.3642 27.4721 29.5456 27.1394C29.7529 26.8067 29.9473 26.4484 30.1287 26.0646C30.4138 25.3992 30.5952 24.7594 30.6729 24.1452C30.7507 23.531 30.9191 22.8913 31.1783 22.2259C31.4115 22.0724 31.567 21.906 31.6448 21.7269C31.7225 21.5477 31.7614 21.3558 31.7614 21.1511C31.7873 20.9207 31.7873 20.6776 31.7614 20.4217C31.7355 20.1658 31.7484 19.8843 31.8003 19.5772C31.8262 19.2701 31.9039 18.963 32.0335 18.6559C32.1631 18.3488 32.2538 18.029 32.3056 17.6963C32.3575 17.4148 32.3834 17.1972 32.3834 17.0437C32.4093 16.8646 32.4223 16.711 32.4223 16.5831C32.4482 16.4551 32.4741 16.3271 32.5 16.1992C32.5518 16.0456 32.6166 15.8537 32.6944 15.6234C32.798 15.3931 32.9147 15.1627 33.0442 14.9324C33.1738 14.7021 33.2904 14.459 33.3941 14.2031C33.6014 13.5377 33.7569 12.834 33.8606 12.0918C33.9643 11.3497 34.0679 10.6203 34.1716 9.90377C34.2234 9.46872 34.3012 8.98249 34.4048 8.44507C34.5344 7.90766 34.5733 7.42143 34.5215 6.98638C34.4178 6.98638 34.2234 7.13993 33.9383 7.44702C33.6792 7.75411 33.3552 8.16357 32.9665 8.67539C32.6037 9.16163 32.189 9.72463 31.7225 10.3644C31.282 10.9786 30.8414 11.6184 30.4008 12.2837C29.9862 12.9235 29.5845 13.5377 29.1957 14.1263C28.8329 14.6893 28.5349 15.1755 28.3016 15.585C27.9129 15.8153 27.6149 16.084 27.4075 16.3911C27.2261 16.6726 27.0706 16.9797 26.941 17.3124C26.8115 17.6451 26.6819 18.0034 26.5523 18.3872C26.4227 18.7455 26.2283 19.1166 25.9692 19.5004C25.7619 20.2938 25.412 21.0743 24.9196 21.842C24.4272 22.6098 24.0255 23.3647 23.7145 24.1068C23.6367 24.3116 23.559 24.5035 23.4813 24.6826C23.4294 24.8362 23.3387 25.0153 23.2091 25.2201C23.0018 25.7319 22.7556 26.2309 22.4705 26.7171C22.2114 27.1778 21.9393 27.664 21.6542 28.1758C21.3432 28.6877 20.9933 29.1611 20.6046 29.5961C20.4491 29.8009 20.3195 30.0696 20.2158 30.4023C20.1381 30.7349 20.0085 30.9269 19.8271 30.9781C19.5939 31.0292 19.3477 30.9909 19.0885 30.8629C18.8293 30.7605 18.5831 30.6838 18.3499 30.6326C17.8834 29.9672 17.6113 29.3018 17.5335 28.6365C17.5335 28.4573 17.5595 28.291 17.6113 28.1374C17.6631 27.9583 17.6761 27.792 17.6502 27.6384C17.6242 27.3569 17.5076 27.0498 17.3003 26.7171C17.093 26.3589 16.9634 26.0006 16.9116 25.6423C16.8079 25.2073 16.8079 24.7978 16.9116 24.4139C17.0152 24.0045 17.0152 23.6334 16.9116 23.3007C16.8597 23.1472 16.7561 23.0192 16.6006 22.9169C16.471 22.7889 16.3803 22.6609 16.3284 22.533C16.2766 22.3539 16.2507 22.1491 16.2507 21.9188C16.2766 21.6885 16.2766 21.4582 16.2507 21.2278C16.1729 20.7928 16.0434 20.3066 15.862 19.7691C15.7065 19.2317 15.5639 18.6943 15.4343 18.1569C15.3048 17.773 15.1234 17.3252 14.8901 16.8134C14.6828 16.3016 14.5532 15.8153 14.5014 15.3547C14.4755 15.0988 14.4495 14.8684 14.4236 14.6637C14.4236 14.4334 14.4107 14.2159 14.3847 14.0111C14.3329 13.5505 14.2163 13.0515 14.0349 12.5141C13.8535 11.9766 13.6591 11.4392 13.4518 10.9018C13.2704 10.3644 13.1019 9.82699 12.9464 9.28958C12.8168 8.75217 12.752 8.22755 12.752 7.71573C12.6225 7.76691 12.5058 7.88207 12.4022 8.06121C12.2985 8.24034 12.1948 8.45787 12.0912 8.71378C11.9875 8.96969 11.8968 9.2256 11.8191 9.48151C11.7413 9.73743 11.6765 9.94215 11.6247 10.0957C11.5469 10.2237 11.4433 10.3644 11.3137 10.518C11.1841 10.6715 11.1064 10.8506 11.0805 11.0554C11.0545 11.1577 11.0675 11.2729 11.1193 11.4008C11.1971 11.5288 11.236 11.6696 11.236 11.8231C11.2619 12.2326 11.1841 12.6676 11.0027 13.1283C10.8213 13.5633 10.6658 13.9983 10.5362 14.4334C10.4066 14.9452 10.303 15.4826 10.2252 16.0456C10.1475 16.5831 9.99199 17.1461 9.75874 17.7347C9.55142 18.2977 9.38296 18.8735 9.25338 19.4621C9.14972 20.0251 9.0331 20.5369 8.90352 20.9975C8.85168 21.3302 8.82577 21.6629 8.82577 21.9956C8.82577 22.3283 8.77394 22.597 8.67027 22.8017C8.54069 23.0576 8.32041 23.2623 8.00942 23.4159C7.72434 23.5694 7.54293 23.787 7.46518 24.0685C7.43926 24.6059 7.32264 25.2201 7.11531 25.911C6.90799 26.602 6.72657 27.2418 6.57108 27.8304C6.51925 28.0607 6.48037 28.3038 6.45446 28.5597C6.42854 28.79 6.37671 28.9948 6.29896 29.1739C6.24713 29.3786 6.14347 29.545 5.98797 29.6729C5.85839 29.8265 5.65106 29.916 5.36599 29.9416C4.87358 29.9928 4.38118 29.8776 3.88878 29.5961C3.42229 29.3146 3.13721 29.0203 3.03355 28.7132C2.98172 28.5085 2.98172 28.3038 3.03355 28.0991C3.08538 27.8687 3.1113 27.6512 3.1113 27.4465C2.77439 27.6512 2.51523 27.7536 2.33382 27.7536C2.17832 27.7536 2.03578 27.7024 1.9062 27.6C1.77662 27.4721 1.63409 27.3185 1.47859 27.1394C1.32309 26.9347 1.11577 26.7427 0.856607 26.5636C0.597447 26.3589 0.403077 26.2437 0.273497 26.2181C0.143917 26.1669 0.0532115 25.9622 0.00137951 25.6039C-0.0504524 25.2201 1.37492 24.7722 1.47858 24.4139C1.58225 24.0557 0.312371 23.8381 0.467867 23.6078C1.08985 23.6078 0.649279 23.3263 0.778859 23.224C0.908439 23.096 1.0121 22.968 1.08985 22.8401C1.19351 22.6354 1.19351 22.3539 1.08985 21.9956C1.0121 21.6117 1.93212 21.5093 2.0617 21.2278C2.24311 20.844 1.54338 20.2554 1.75071 19.9227C1.95804 19.5644 2.07466 19.1294 2.10057 18.6175C2.12649 18.4128 2.11353 18.1953 2.0617 17.965C2.00987 17.7347 2.00987 17.5171 2.0617 17.3124C2.08762 17.1077 2.12649 16.9029 2.17832 16.6982C2.25607 16.4679 2.33382 16.212 2.41157 15.9305C2.48931 15.5466 2.63185 15.1372 2.83918 14.7021C3.04651 14.2671 3.21496 13.7936 3.34454 13.2818C3.4482 13.0771 3.53891 12.8723 3.61666 12.6676C3.69441 12.4373 3.77215 12.2198 3.8499 12.015C4.0054 11.58 4.10906 11.1577 4.16089 10.7483C4.23864 10.3132 4.34231 9.89097 4.47188 9.48151C4.52372 9.32797 4.60146 9.20001 4.70513 9.09765C4.83471 8.96969 4.92541 8.84174 4.97725 8.71378C5.18457 8.27873 5.28824 7.83089 5.28824 7.37025C5.28824 6.88401 5.34007 6.38499 5.44373 5.87316C5.52148 5.38693 5.61219 4.95188 5.71585 4.56802C5.84543 4.15856 5.9491 3.78749 6.02684 3.4548C6.10459 3.09653 6.11755 2.76384 6.06572 2.45675C6.0398 2.14966 5.91022 1.82977 5.67698 1.49708C5.5474 1.31794 5.40486 1.18999 5.24936 1.11321C5.11978 1.03644 5.04204 0.934076 5.01612 0.806121C5.01612 0.499027 5.13274 0.332685 5.36599 0.307094C5.62515 0.255911 5.91022 0.268707 6.22121 0.34548C6.5322 0.422254 6.83024 0.524618 7.11531 0.652574C7.42631 0.754938 7.62068 0.818916 7.69842 0.844507C7.828 0.870098 7.9835 0.870098 8.16491 0.844507C8.34632 0.818916 8.54069 0.831712 8.74802 0.882894C8.98126 0.908485 9.21451 0.946872 9.44775 0.998054C9.681 1.04924 9.88832 1.08762 10.0697 1.11321C10.4844 1.11321 10.7824 1.11321 10.9638 1.11321C11.1452 1.08762 11.4303 1.06203 11.8191 1.03644C12.1819 1.01085 12.6225 1.01085 13.1408 1.03644C13.685 1.06203 14.1515 1.04924 14.5402 0.998054C14.8771 0.972463 15.2918 0.921281 15.7842 0.844507C16.3025 0.767734 16.7949 0.703756 17.2614 0.652574C17.7538 0.601392 18.1814 0.601392 18.5443 0.652574C18.933 0.678165 19.1533 0.806121 19.2051 1.03644C19.2829 1.31794 19.2051 1.57385 18.9719 1.80417C18.7645 2.0089 18.635 2.22643 18.5831 2.45675C18.5313 3.07094 18.4665 3.7619 18.3888 4.52963C18.311 5.27177 18.311 5.89876 18.3888 6.41058C18.4406 6.69208 18.4536 6.97358 18.4276 7.25509C18.4017 7.511 18.4276 7.74132 18.5054 7.94605C18.6609 8.50905 18.7775 9.04646 18.8553 9.55829C18.8812 9.86538 18.9978 10.1597 19.2051 10.4412C19.4384 10.6971 19.542 10.9658 19.5161 11.2473C19.4902 11.6056 19.555 11.9766 19.7105 12.3605C19.8919 12.7188 19.9956 13.1027 20.0215 13.5121C20.0733 13.9216 20.0992 14.3438 20.0992 14.7789C20.1251 15.2139 20.2677 15.6106 20.5268 15.9689C20.786 15.7641 20.9415 15.5082 20.9933 15.2011C21.0711 14.894 21.1747 14.5997 21.3043 14.3182C21.3561 14.1903 21.4339 14.0751 21.5376 13.9728C21.6671 13.8448 21.7838 13.7168 21.8874 13.5889C22.1725 13.0003 22.5224 12.3861 22.937 11.7463C23.3776 11.081 23.7534 10.4156 24.0644 9.75022C24.4013 9.11044 24.7252 8.47066 25.0362 7.83089C25.3472 7.16552 25.6452 6.50015 25.9303 5.83478C25.9821 5.73241 26.0728 5.61725 26.2024 5.4893C26.3579 5.36134 26.5134 5.23339 26.6689 5.10543C26.8244 4.97748 26.967 4.86231 27.0965 4.75995C27.252 4.63199 27.3686 4.50404 27.4464 4.37608C27.8351 3.65953 28.1591 3.04534 28.4182 2.53352C28.7033 1.99611 28.9106 1.33074 29.0402 0.537414C29.5067 0.511823 29.9473 0.524618 30.3619 0.5758C30.8025 0.626983 31.282 0.690961 31.8003 0.767734C32.0076 0.818916 32.189 0.882894 32.3445 0.959667C32.5259 1.03644 32.7073 1.08762 32.8888 1.11321C33.2516 1.1644 33.5367 1.17719 33.744 1.1516C33.9772 1.12601 34.1716 1.10042 34.3271 1.07483C34.5085 1.02365 34.677 0.998054 34.8324 0.998054C35.0139 0.972463 35.2601 1.01085 35.5711 1.11321C36.4522 1.11321 37.3593 1.04924 38.2922 0.921281C39.2252 0.793325 40.1582 0.665369 41.0912 0.537414C42.05 0.383867 42.996 0.255911 43.929 0.153547C44.8878 0.0511823 45.8208 0 46.7279 0Z" fill="#B90504"/>
</svg>
